<svg width="158" height="59" viewBox="0 0 158 59" fill="none" xmlns="http://www.w3.org/2000/svg">
<path d="M27.2908 41.4669C28.944 41.4669 30.5301 40.417 32.0492 38.317C34.7746 34.4746 36.6065 29.2918 37.5448 22.7686C36.115 22.0537 35.1544 21.0931 34.6629 19.8867C34.2161 18.6804 33.9927 17.7421 33.9927 17.0719C33.9927 14.7486 34.7523 13.5869 36.2714 13.5869C38.1479 13.5869 39.0862 15.6645 39.0862 19.8197C39.0862 20.2665 39.0862 20.7356 39.0862 21.2271C39.7564 21.4505 40.583 21.5622 41.5659 21.5622C42.5936 21.5622 43.5095 21.1378 44.3137 20.2888C45.1179 19.4399 45.5201 18.658 45.5201 17.9432C45.5201 17.7644 45.6094 17.6527 45.7881 17.6081C46.0115 17.5187 46.2349 17.5187 46.4583 17.6081C46.6817 17.6974 46.7934 17.8315 46.7934 18.0102C46.7934 19.3059 46.2349 20.5346 45.1179 21.6962C44.0456 22.8579 42.5936 23.4387 40.7617 23.4387C40.0915 23.4387 39.4883 23.3717 38.9522 23.2377C38.1479 30.2971 36.0703 35.9043 32.7194 40.0595C30.9769 42.2042 29.1227 43.2765 27.1568 43.2765C24.0292 43.2765 21.9293 41.6233 20.857 38.317C18.2209 41.6233 15.6965 43.2765 13.2838 43.2765C9.88814 43.2765 7.7882 42.1148 6.98397 39.7915C6.53717 38.5404 6.31378 37.2 6.31378 35.7703C6.31378 34.3406 6.47015 32.7544 6.78291 31.0119C7.4531 27.7056 8.74881 22.7686 10.67 16.2007C10.9381 15.2624 11.3626 14.7933 11.9434 14.7933C12.7476 14.7933 13.3285 15.3518 13.6859 16.4687C13.8646 17.0049 13.954 17.6528 13.954 18.4123C13.954 19.1272 13.8423 19.8867 13.6189 20.691C13.3955 21.4952 13.1274 22.4781 12.8146 23.6398C12.5019 24.8015 12.2338 25.7844 12.0104 26.5887C11.787 27.3929 11.5189 28.3758 11.2062 29.5375C10.9381 30.6992 10.7147 31.7045 10.536 32.5534C10.402 33.4023 10.2679 34.3182 10.1339 35.3012C10.0445 36.2841 10.0445 37.133 10.1339 37.8479C10.2232 38.5181 10.3796 39.1436 10.603 39.7244C11.0498 40.8861 11.9881 41.4669 13.4178 41.4669C15.5624 41.4669 17.8634 39.7021 20.3208 36.1724C20.1421 35.1001 20.0527 34.0055 20.0527 32.8885C20.0527 29.8949 20.6112 26.7004 21.7282 23.3047C23.292 18.658 24.8781 16.3347 26.4866 16.3347C27.7823 16.3347 28.4301 17.34 28.4301 19.3506C28.4301 20.1548 28.3184 21.0931 28.095 22.1654C27.4249 25.9631 25.9504 29.8949 23.6718 33.9608C24.0739 38.9649 25.2802 41.4669 27.2908 41.4669ZM23.6048 30.5428C24.543 28.6216 25.3249 26.7227 25.9504 24.8462C26.5759 22.9696 26.911 21.7186 26.9557 21.0931C27.0451 20.4229 27.0898 19.8644 27.0898 19.4176C27.0898 18.9708 26.911 18.7027 26.5536 18.6134C25.7941 18.6134 25.1239 19.8644 24.543 22.3664C23.9622 24.8238 23.6494 27.5493 23.6048 30.5428Z" fill="#D7FE64"/>
<path d="M71.4609 23.407H76.0453L70.8844 38.0882H66.5672L63.8109 28.6101L61.0406 38.0882H56.7234L51.5625 23.407H56.2594L58.9734 32.6179L61.7297 23.407H65.9906L68.7609 32.646L71.4609 23.407ZM92.0091 30.8039C92.0091 31.3101 91.9809 31.7507 91.9247 32.1257H80.9841C81.2466 32.9507 81.7106 33.5976 82.3762 34.0664C83.0419 34.5351 83.8341 34.7695 84.7528 34.7695C85.5403 34.7695 86.2575 34.6148 86.9044 34.3054C87.5512 33.996 88.0622 33.607 88.4372 33.1382L91.2637 35.5851C90.4669 36.4851 89.4966 37.1882 88.3528 37.6945C87.2091 38.1914 85.9716 38.4398 84.6403 38.4398C82.3059 38.4398 80.3559 37.6992 78.7903 36.2179C77.2341 34.7273 76.4559 32.8757 76.4559 30.6632C76.4559 29.2476 76.7934 27.9585 77.4684 26.796C78.1528 25.6335 79.095 24.7195 80.295 24.0539C81.495 23.3882 82.8262 23.0554 84.2887 23.0554C86.4919 23.0554 88.3294 23.7914 89.8012 25.2632C91.2731 26.7351 92.0091 28.582 92.0091 30.8039ZM84.2325 26.6835C83.445 26.6835 82.7559 26.9226 82.1653 27.4007C81.5747 27.8695 81.1716 28.5117 80.9559 29.3273H87.5512C87.3169 28.5023 86.9044 27.8554 86.3137 27.3867C85.7231 26.9179 85.0294 26.6835 84.2325 26.6835ZM101.645 20.8335C100.36 20.8335 99.7181 21.4195 99.7181 22.5914V23.407H103.206V27.232H99.7181V38.0882H95.5134V27.232H93.2916V23.407H95.5134V22.3101C95.5134 20.6789 95.9447 19.3898 96.8072 18.4429C97.6697 17.4867 98.9681 17.0085 100.702 17.0085C101.752 17.0085 102.681 17.2195 103.487 17.6414V21.3539C102.943 21.007 102.329 20.8335 101.645 20.8335ZM112.56 38.4398C110.469 38.4398 108.787 37.8726 107.512 36.7382C106.246 35.5945 105.613 34.0851 105.613 32.2101V23.407H109.818V31.6335C109.818 32.4585 110.066 33.1242 110.563 33.6304C111.069 34.1273 111.735 34.3757 112.56 34.3757C113.385 34.3757 114.046 34.1273 114.543 33.6304C115.04 33.1242 115.288 32.4585 115.288 31.6335V23.407H119.493V32.2101C119.493 34.0851 118.86 35.5945 117.594 36.7382C116.338 37.8726 114.66 38.4398 112.56 38.4398ZM131.547 23.0554C133.235 23.0554 134.594 23.5664 135.625 24.5882C136.657 25.6007 137.172 26.9507 137.172 28.6382V38.0882H132.967V30.0585C132.967 29.1679 132.705 28.4554 132.18 27.921C131.664 27.3867 130.975 27.1195 130.113 27.1195C129.213 27.1195 128.482 27.396 127.919 27.9492C127.366 28.4929 127.089 29.2148 127.089 30.1148V38.0882H122.885V23.407H127.089V24.8695C128.271 23.6601 129.757 23.0554 131.547 23.0554ZM151.223 17.346H155.428V38.0882H151.223V36.6257C150.042 37.8351 148.561 38.4398 146.78 38.4398C144.764 38.4398 143.077 37.7039 141.717 36.232C140.367 34.7601 139.692 32.932 139.692 30.7476C139.692 28.5632 140.367 26.7351 141.717 25.2632C143.077 23.7914 144.764 23.0554 146.78 23.0554C148.561 23.0554 150.042 23.6601 151.223 24.8695V17.346ZM147.623 34.3757C148.655 34.3757 149.512 34.0289 150.197 33.3351C150.881 32.6414 151.223 31.7789 151.223 30.7476C151.223 29.7164 150.881 28.8539 150.197 28.1601C149.512 27.4664 148.655 27.1195 147.623 27.1195C146.602 27.1195 145.748 27.4664 145.064 28.1601C144.389 28.8539 144.052 29.7164 144.052 30.7476C144.052 31.7789 144.389 32.6414 145.064 33.3351C145.748 34.0289 146.602 34.3757 147.623 34.3757Z" fill="white"/>
</svg>
