<svg width="25" height="25" viewBox="0 0 25 25" fill="none" xmlns="http://www.w3.org/2000/svg">
<path d="M5.63 19.2882C7.927 19.2882 9.653 17.3682 10.683 15.8522C10.5602 16.1695 10.4942 16.506 10.488 16.8462C10.488 17.7312 11.018 18.3622 12.062 18.3622C13.495 18.3622 15.027 17.1542 15.82 15.8522C15.7692 16.0224 15.7413 16.1986 15.737 16.3762C15.737 16.9932 16.099 17.3822 16.837 17.3822C19.161 17.3822 21.5 13.4232 21.5 9.96121C21.5 7.26321 20.08 4.88821 16.516 4.88821C10.252 4.88821 3.5 12.2422 3.5 16.9932C3.5 18.8592 4.544 19.2882 5.63 19.2882ZM14.359 9.66621C14.359 8.99521 14.749 8.52521 15.319 8.52521C15.876 8.52521 16.266 8.99521 16.266 9.66521C16.266 10.3372 15.876 10.8202 15.319 10.8202C14.749 10.8202 14.359 10.3372 14.359 9.66621ZM17.338 9.66621C17.338 8.99521 17.728 8.52521 18.298 8.52521C18.855 8.52521 19.245 8.99521 19.245 9.66521C19.245 10.3372 18.855 10.8202 18.298 10.8202C17.728 10.8202 17.338 10.3372 17.338 9.66621Z" fill="#AB9FF2"/>
</svg>
